# Alias OBJ Model File
# Exported from SketchUp, (c) 2000-2006 Google, Inc.
# File units = meters

mtllib ball.mtl

g Mesh1 Model

usemtl ball
v 0.00587785 0.00618034 0.0180902
vt 0.293893 0.170841
vn 0 0.148952 0.988844
v -0.00618034 0 0.0190211
vt -0.309017 -0.141662
v 0.00618034 0 0.0190211
vt 0.309017 -0.141662
f 1/1/1 2/2/1 3/3/1

v -0.00587785 0.00618034 0.0180902
vt -0.293893 0.170841
f 2/2/1 1/1/1 4/4/1

v 0.005 0.0117557 0.0153884
vt 0.25 0.19342
vn 0 0.436083 0.899906
vt -0.293893 -0.116355
vt 0.293893 -0.116355
f 5/5/2 4/6/2 1/7/2

v -0.005 0.0117557 0.0153884
vt -0.25 0.19342
f 4/6/2 5/5/2 6/8/2

v 0.00363271 0.0161803 0.0111803
vt 0.181636 0.20098
vn 0 0.689152 0.724617
vt -0.25 -0.104328
vt 0.25 -0.104328
f 7/9/3 6/10/3 5/11/3

v -0.00363271 0.0161803 0.0111803
vt -0.181636 0.20098
f 6/10/3 7/9/3 8/12/3

vt 0.181636 -0.110703
vn 0 0.881468 0.472243
v -0.00190983 0.0190211 0.00587785
vt -0.0954915 0.190073
vt -0.181636 -0.110703
f 7/13/4 9/14/4 8/15/4

v 0.00190983 0.0190211 0.00587785
vt 0.0954915 0.190073
f 9/14/4 7/13/4 10/16/4

vt -0.181635 -0.110703
vn 0.277578 0.881468 0.382053
v 0.005 0.0190211 0.00363271
vt 0.0954917 0.190073
vt -0.0954913 0.190073
f 7/17/5 11/18/5 10/19/5

v 0.00951057 0.0161803 0.00690983
vt 0.181636 -0.110703
f 11/18/5 7/17/5 12/20/5

vt -0.25 -0.104329
vn 0.425919 0.689152 0.586228
vt 0.181636 0.20098
vt -0.181636 0.20098
f 5/21/6 12/22/6 7/23/6

v 0.0130902 0.0117557 0.00951057
vt 0.25 -0.104329
f 12/22/6 5/21/6 13/24/6

vt -0.293893 -0.116355
vn 0.528951 0.436083 0.72804
vt 0.25 0.19342
vt -0.25 0.19342
f 1/25/7 13/26/7 5/27/7

v 0.0153884 0.00618034 0.0111803
vt 0.293893 -0.116355
f 13/26/7 1/25/7 14/28/7

vt -0.309017 -0.141662
vn 0.581228 0.148952 0.799992
vt 0.293893 0.170842
vt -0.293893 0.170842
f 3/29/8 14/30/8 1/31/8

v 0.0161803 0 0.0117557
vt 0.309017 -0.141662
f 14/30/8 3/29/8 15/32/8

v 0.00587785 -0.00618034 0.0180902
vt -0.293893 -0.170842
vn 0.581228 -0.148952 0.799992
vt 0.309017 0.141662
vt -0.309017 0.141662
f 16/33/9 15/34/9 3/35/9

v 0.0153884 -0.00618034 0.0111803
vt 0.293893 -0.170842
f 15/34/9 16/33/9 17/36/9

v 0.005 -0.0117557 0.0153884
vt -0.25 -0.19342
vn 0.528951 -0.436083 0.72804
vt 0.293893 0.116355
vt -0.293893 0.116355
f 18/37/10 17/38/10 16/39/10

v 0.0130902 -0.0117557 0.00951057
vt 0.25 -0.19342
f 17/38/10 18/37/10 19/40/10

vt -0.25 0.104329
vn 0.425919 -0.689152 0.586228
v 0.00951057 -0.0161803 0.00690983
vt 0.181636 -0.20098
vt 0.25 0.104329
f 18/41/11 20/42/11 19/43/11

v 0.00363271 -0.0161803 0.0111803
vt -0.181636 -0.20098
f 20/42/11 18/41/11 21/44/11

vt 0.25 0.104328
vn 0 -0.689152 0.724617
v -0.00363271 -0.0161803 0.0111803
vt -0.181636 -0.20098
vt 0.181636 -0.20098
f 18/45/12 22/46/12 21/47/12

v -0.005 -0.0117557 0.0153884
vt -0.25 0.104328
f 22/46/12 18/45/12 23/48/12

vt 0.293893 0.116355
vn 0 -0.436083 0.899906
vt -0.25 -0.19342
vt 0.25 -0.19342
f 16/49/13 23/50/13 18/51/13

v -0.00587785 -0.00618034 0.0180902
vt -0.293893 0.116355
f 23/50/13 16/49/13 24/52/13

vt 0.309017 0.141662
vn 0 -0.148952 0.988844
vt -0.293893 -0.170841
vt 0.293893 -0.170841
f 3/53/14 24/54/14 16/55/14

vt -0.309017 0.141662
f 24/54/14 3/53/14 2/56/14

vt 0.309017 0.141662
vn -0.581228 -0.148952 0.799992
v -0.0153884 -0.00618034 0.0111803
vt -0.293893 -0.170841
vt 0.293892 -0.170841
f 2/57/15 25/58/15 24/59/15

v -0.0161803 0 0.0117557
vt -0.309017 0.141662
f 25/58/15 2/57/15 26/60/15

vt 0.293892 0.170841
vn -0.581228 0.148952 0.799992
vt -0.309017 -0.141662
vt 0.309017 -0.141662
f 4/61/16 26/62/16 2/63/16

v -0.0153884 0.00618034 0.0111803
vt -0.293893 0.170841
f 26/62/16 4/61/16 27/64/16

vt 0.25 0.19342
vn -0.528951 0.436083 0.72804
vt -0.293893 -0.116355
vt 0.293893 -0.116355
f 6/65/17 27/66/17 4/67/17

v -0.0130902 0.0117557 0.00951057
vt -0.25 0.19342
f 27/66/17 6/65/17 28/68/17

vt 0.25 -0.104329
vn -0.425919 0.689152 0.586228
v -0.00951057 0.0161803 0.00690983
vt -0.181636 0.20098
vt -0.25 -0.104329
f 6/69/18 29/70/18 28/71/18

vt 0.181636 0.20098
f 29/70/18 6/69/18 8/72/18

vt 0.181635 -0.110703
vn -0.277578 0.881468 0.382053
v -0.005 0.0190211 0.00363271
vt -0.0954917 0.190073
vt -0.181636 -0.110703
f 8/73/19 30/74/19 29/75/19

vt 0.0954913 0.190073
f 30/74/19 8/73/19 9/76/19

v 0 0.02 -0
vt -8.8124e-18 0.164273
vn -0.0965572 0.986415 0.1329
vt -0.0954916 -0.133667
vt 0.0954914 -0.133667
f 31/77/20 30/78/20 9/79/20

vt 0 0.164273
vn -0.156233 0.986415 0.0507632
v -0.00618034 0.0190211 -0
vt -0.0954916 -0.133667
vt 0.0954913 -0.133667
f 31/80/21 32/81/21 30/82/21

vn -0.156233 0.986415 -0.0507632
v -0.005 0.0190211 -0.00363271
vt -0.0954913 -0.133667
vt 0.0954916 -0.133667
f 31/80/22 33/83/22 32/84/22

vt 8.8124e-18 0.164273
vn -0.0965572 0.986415 -0.1329
v -0.00190983 0.0190211 -0.00587785
vt -0.0954914 -0.133667
vt 0.0954916 -0.133667
f 31/85/23 34/86/23 33/87/23

v 0.00190983 0.0190211 -0.00587785
vt -0.0954915 -0.133667
vn 0 0.986415 -0.164273
vt 0.0954915 -0.133667
vt 0 0.164273
f 35/88/24 34/89/24 31/90/24

v 0.00363271 0.0161803 -0.0111803
vn 0 0.881468 -0.472243
f 36/15/25 34/16/25 35/14/25

v -0.00363271 0.0161803 -0.0111803
f 34/16/25 36/15/25 37/13/25

v 0.005 0.0117557 -0.0153884
vn 0 0.689152 -0.724617
f 38/10/26 37/9/26 36/12/26

v -0.005 0.0117557 -0.0153884
f 37/9/26 38/10/26 39/11/26

v 0.00587785 0.00618034 -0.0180902
vn 2.19027e-18 0.436083 -0.899906
f 40/6/27 39/5/27 38/8/27

v -0.00587786 0.00618034 -0.0180902
vt 0.293893 -0.116355
f 39/5/27 40/6/27 41/91/27

v 0.00618034 0 -0.0190211
vn -3.77743e-18 0.148952 -0.988844
vt 0.293893 0.170841
f 42/2/28 41/92/28 40/4/28

v -0.00618034 0 -0.0190211
f 41/92/28 42/2/28 43/3/28

v 0.00587785 -0.00618034 -0.0180902
vn -3.77743e-18 -0.148952 -0.988844
f 44/54/29 43/53/29 42/56/29

v -0.00587786 -0.00618034 -0.0180902
vt 0.293893 -0.170841
f 43/53/29 44/54/29 45/93/29

v 0.005 -0.0117557 -0.0153884
vn -6.26621e-18 -0.436083 -0.899906
vt 0.293893 0.116355
f 46/50/30 45/94/30 44/52/30

v -0.005 -0.0117557 -0.0153884
f 45/94/30 46/50/30 47/51/30

v 0.00363271 -0.0161803 -0.0111803
vn 0 -0.689152 -0.724617
f 48/46/31 47/45/31 46/48/31

v -0.00363271 -0.0161803 -0.0111803
f 47/45/31 48/46/31 49/47/31

vt -0.181636 0.110703
vn 0 -0.881468 -0.472243
v -0.00190983 -0.0190211 -0.00587785
vt 0.0954915 -0.190073
vt 0.181636 0.110703
f 48/95/32 50/96/32 49/97/32

v 0.00190983 -0.0190211 -0.00587785
vt -0.0954915 -0.190073
f 50/96/32 48/95/32 51/98/32

vt 0.181635 0.110703
vn 0.277578 -0.881468 -0.382053
v 0.005 -0.0190211 -0.00363271
vt -0.0954917 -0.190073
vt 0.0954913 -0.190073
f 48/99/33 52/100/33 51/101/33

v 0.00951057 -0.0161803 -0.00690983
vt -0.181636 0.110703
f 52/100/33 48/99/33 53/102/33

vt 0.25 0.104329
vn 0.425919 -0.689152 -0.586228
vt -0.181636 -0.20098
vt 0.181636 -0.20098
f 46/103/34 53/104/34 48/105/34

v 0.0130902 -0.0117557 -0.00951057
vt -0.25 0.104329
f 53/104/34 46/103/34 54/106/34

vt 0.293893 0.116355
vn 0.528951 -0.436083 -0.72804
vt -0.25 -0.19342
vt 0.25 -0.19342
f 44/107/35 54/108/35 46/109/35

v 0.0153884 -0.00618034 -0.0111803
vt -0.293893 0.116355
f 54/108/35 44/107/35 55/110/35

vn 0.581228 -0.148952 -0.799992
f 42/57/36 55/58/36 44/59/36

v 0.0161803 0 -0.0117557
f 55/58/36 42/57/36 56/60/36

usemtl ballStar2_
vt 0.975528 1
vn 0.581228 0.148952 -0.799992
vt 0 5.55112e-17
vt 1 1.39711e-08
f 40/111/37 56/112/37 42/113/37

v 0.0153884 0.00618034 -0.0111803
vt 0.0244714 1
f 56/112/37 40/111/37 57/114/37

usemtl ball
vn 0.528951 0.436083 -0.72804
f 38/65/38 57/66/38 40/67/38

v 0.0130902 0.0117557 -0.00951057
f 57/66/38 38/65/38 58/68/38

vn 0.425919 0.689152 -0.586228
v 0.00951057 0.0161803 -0.00690983
f 38/69/39 59/70/39 58/71/39

f 59/70/39 38/69/39 36/72/39

vn 0.277578 0.881468 -0.382053
v 0.005 0.0190211 -0.00363271
f 36/73/40 60/74/40 59/75/40

f 60/74/40 36/73/40 35/76/40

vn 0.0965572 0.986415 -0.1329
f 60/78/41 35/79/41 31/77/41

v 0.00618034 0.0190211 -0
vn 0.156233 0.986415 -0.0507632
f 61/81/42 60/82/42 31/80/42

vt -0.0954912 0.190073
vn 0.44913 0.881468 -0.145931
vt 0.181636 -0.110703
vt 0.0954917 0.190073
f 61/115/43 59/116/43 60/117/43

v 0.0117557 0.0161803 -0
vt -0.181635 -0.110702
f 59/116/43 61/115/43 62/118/43

vt 0.0954912 0.190073
vn 0.44913 0.881468 0.145931
vt -0.181636 -0.110703
vt 0.181635 -0.110702
f 61/119/44 12/120/44 62/121/44

vt -0.0954917 0.190073
f 12/120/44 61/119/44 11/122/44

vn 0.156233 0.986415 0.0507632
f 61/84/45 31/80/45 11/83/45

vn 0.0965572 0.986415 0.1329
f 11/87/46 31/85/46 10/86/46

vn 0 0.986415 0.164273
f 10/89/47 31/90/47 9/88/47

vt -0.181636 0.20098
vn 0.689152 0.689151 0.223919
v 0.0161803 0.0117557 -0
vt 0.25 -0.104328
vt 0.181635 0.200981
f 12/123/48 63/124/48 62/125/48

vt -0.250001 -0.104328
f 63/124/48 12/123/48 13/126/48

vt -0.25 0.193419
vn 0.855862 0.436084 0.278086
v 0.0190211 0.00618034 -0
vt 0.293892 -0.116355
vt 0.25 0.193419
f 13/127/49 64/128/49 63/129/49

vt -0.293893 -0.116355
f 64/128/49 13/127/49 14/130/49

usemtl ballStar
vt 0.0244714 1
vn 0.940447 0.148952 0.30557
v 0.02 0 -0
vt 1 0
vt 0.975528 1
f 14/131/50 65/132/50 64/133/50

vt 0 4.67325e-08
f 65/132/50 14/131/50 15/134/50

usemtl ball
vt -0.293893 -0.170841
vn 0.940447 -0.148952 0.30557
vt 0.309017 0.141662
vt -0.309017 0.141662
f 17/135/51 65/136/51 15/137/51

v 0.0190211 -0.00618034 -0
vt 0.293893 -0.170841
f 65/136/51 17/135/51 66/138/51

vt -0.25 -0.193419
vn 0.855862 -0.436084 0.278086
vt 0.293892 0.116355
vt -0.293893 0.116355
f 19/139/52 66/140/52 17/141/52

v 0.0161803 -0.0117557 -0
vt 0.25 -0.193419
f 66/140/52 19/139/52 67/142/52

vt -0.181636 -0.20098
vn 0.689152 -0.689151 0.223919
vt 0.25 0.104328
vt -0.250001 0.104328
f 20/143/53 67/144/53 19/145/53

v 0.0117557 -0.0161803 -0
vt 0.181635 -0.200981
f 67/144/53 20/143/53 68/146/53

vt -0.181636 0.110703
vn 0.44913 -0.881468 0.145931
v 0.00618034 -0.0190211 -0
vt 0.0954912 -0.190073
vt 0.181635 0.110702
f 20/147/54 69/148/54 68/149/54

v 0.005 -0.0190211 0.00363271
vt -0.0954917 -0.190073
f 69/148/54 20/147/54 70/150/54

vt -0.181635 0.110703
vn 0.277578 -0.881468 0.382053
vt 0.0954917 -0.190073
vt 0.181636 0.110703
f 21/151/55 70/152/55 20/153/55

v 0.00190983 -0.0190211 0.00587785
vt -0.0954913 -0.190073
f 70/152/55 21/151/55 71/154/55

vn 0 -0.881468 0.472243
v -0.00190983 -0.0190211 0.00587785
f 21/97/56 72/98/56 71/96/56

f 72/98/56 21/97/56 22/95/56

vn -0.277578 -0.881468 0.382053
v -0.005 -0.0190211 0.00363271
f 22/99/57 73/100/57 72/101/57

v -0.00951057 -0.0161803 0.00690983
f 73/100/57 22/99/57 74/102/57

vn -0.425919 -0.689152 0.586228
f 23/103/58 74/104/58 22/105/58

v -0.0130902 -0.0117557 0.00951057
f 74/104/58 23/103/58 75/106/58

vn -0.528951 -0.436083 0.72804
f 24/107/59 75/108/59 23/109/59

f 75/108/59 24/107/59 25/110/59

v -0.0190211 -0.00618034 -0
vt -0.293892 0.116355
vn -0.855862 -0.436084 0.278086
vt 0.25 -0.193419
vt 0.293893 0.116355
f 76/155/60 75/156/60 25/157/60

v -0.0161803 -0.0117557 -0
vt -0.25 -0.193419
f 75/156/60 76/155/60 77/158/60

v -0.0153884 -0.00618034 -0.0111803
vn -0.855862 -0.436084 -0.278086
f 78/141/61 77/142/61 76/140/61

v -0.0130902 -0.0117557 -0.00951057
f 77/142/61 78/141/61 79/139/61

vt 0.293893 0.116355
vn -0.528952 -0.436084 -0.728039
vt -0.25 -0.193419
vt 0.25 -0.193419
f 78/159/62 47/160/62 79/161/62

vt -0.293892 0.116355
f 47/160/62 78/159/62 45/162/62

v -0.0161803 0 -0.0117557
vt 0.309017 0.141661
vn -0.581228 -0.148951 -0.799992
vt -0.293893 -0.170842
vt 0.293892 -0.170842
f 80/163/63 45/164/63 78/165/63

vt -0.309017 0.141661
f 45/164/63 80/163/63 43/166/63

v -0.0153884 0.00618034 -0.0111803
vt 0.293892 0.170842
vn -0.581228 0.148951 -0.799992
vt -0.309017 -0.141661
vt 0.309017 -0.141661
f 81/167/64 43/168/64 80/169/64

vt -0.293893 0.170842
f 43/168/64 81/167/64 41/170/64

v -0.0130902 0.0117557 -0.00951057
vt 0.25 0.193419
vn -0.528952 0.436084 -0.728039
vt -0.293892 -0.116355
vt 0.293893 -0.116355
f 82/171/65 41/172/65 81/173/65

vt -0.25 0.193419
f 41/172/65 82/171/65 39/174/65

v -0.00951057 0.0161803 -0.00690983
vn -0.425919 0.689152 -0.586228
f 83/22/66 39/21/66 82/24/66

f 39/21/66 83/22/66 37/23/66

vn -0.277578 0.881468 -0.382053
f 33/18/67 37/17/67 83/20/67

f 37/17/67 33/18/67 34/19/67

vt -0.181636 -0.110703
vn -0.44913 0.881468 -0.145931
vt 0.0954915 0.190073
vt -0.0954914 0.190073
f 83/175/68 32/176/68 33/177/68

v -0.0117557 0.0161803 -0
vt 0.181636 -0.110703
f 32/176/68 83/175/68 84/178/68

vt -0.181636 0.200981
vn -0.689152 0.689151 -0.223919
v -0.0161803 0.0117557 -0
vt 0.25 -0.104328
vt 0.181636 0.200981
f 83/179/69 85/180/69 84/181/69

vt -0.25 -0.104328
f 85/180/69 83/179/69 82/182/69

vn -0.855862 0.436084 -0.278086
v -0.0190211 0.00618034 -0
f 82/127/70 86/128/70 85/129/70

f 86/128/70 82/127/70 81/130/70

vt -0.293893 0.170841
vn -0.940447 0.148952 -0.30557
v -0.02 0 -0
vt 0.309017 -0.141662
vt 0.293893 0.170841
f 81/183/71 87/184/71 86/185/71

vt -0.309017 -0.141662
f 87/184/71 81/183/71 80/186/71

vn -0.940447 -0.148952 -0.30557
f 80/137/72 76/138/72 87/136/72

f 76/138/72 80/137/72 78/135/72

vt 0.293893 -0.170841
vn -0.940447 -0.148952 0.30557
vt -0.309017 0.141662
vt -0.293892 -0.170841
f 25/187/73 87/188/73 76/189/73

vt 0.309017 0.141662
f 87/188/73 25/187/73 26/190/73

vt 0.293893 0.170841
vn -0.940447 0.148952 0.30557
vt -0.309017 -0.141662
vt 0.309017 -0.141662
f 27/191/74 87/192/74 26/193/74

vt -0.293892 0.170841
f 87/192/74 27/191/74 86/194/74

vt 0.25 0.193419
vn -0.855862 0.436084 0.278086
vt -0.293892 -0.116355
vt 0.293893 -0.116355
f 28/195/75 86/196/75 27/197/75

vt -0.25 0.193419
f 86/196/75 28/195/75 85/198/75

vt 0.181636 0.200981
vn -0.689152 0.689151 0.223919
vt -0.25 -0.104328
vt 0.25 -0.104328
f 29/199/76 85/200/76 28/201/76

vt -0.181636 0.200981
f 85/200/76 29/199/76 84/202/76

vt 0.181636 -0.110703
vn -0.44913 0.881468 0.145931
vt -0.0954915 0.190073
vt -0.181636 -0.110703
f 29/203/77 32/204/77 84/205/77

vt 0.0954914 0.190073
f 32/204/77 29/203/77 30/206/77

vn -0.425919 -0.689152 -0.586228
v -0.00951057 -0.0161803 -0.00690983
f 47/41/78 88/42/78 79/43/78

f 88/42/78 47/41/78 49/44/78

vn -0.277578 -0.881468 -0.382053
v -0.005 -0.0190211 -0.00363271
f 49/151/79 89/152/79 88/153/79

f 89/152/79 49/151/79 50/154/79

v 0 -0.02 -0
vt 8.8124e-18 -0.164273
vn -0.0965572 -0.986415 -0.1329
vt 0.0954916 0.133667
vt -0.0954914 0.133667
f 90/207/80 89/208/80 50/209/80

vt 0 -0.164273
vn -0.156233 -0.986415 -0.0507632
v -0.00618034 -0.0190211 -0
vt 0.0954916 0.133667
vt -0.0954913 0.133667
f 90/210/81 91/211/81 89/212/81

vn -0.156233 -0.986415 0.0507632
vt 0.0954913 0.133667
vt -0.0954916 0.133667
f 90/210/82 73/213/82 91/214/82

vt -8.8124e-18 -0.164273
vn -0.0965572 -0.986415 0.1329
vt 0.0954914 0.133667
vt -0.0954916 0.133667
f 90/215/83 72/216/83 73/217/83

vt 0.0954915 0.133667
vn 0 -0.986415 0.164273
vt -0.0954915 0.133667
vt 0 -0.164273
f 71/218/84 72/219/84 90/220/84

vn 0.0965572 -0.986415 0.1329
f 70/208/85 71/209/85 90/207/85

vn 0.156233 -0.986415 0.0507632
f 69/211/86 70/212/86 90/210/86

vn 0.156233 -0.986415 -0.0507632
f 69/214/87 90/210/87 52/213/87

vn 0.0965572 -0.986415 -0.1329
f 52/217/88 90/215/88 51/216/88

vn 0 -0.986415 -0.164273
f 51/219/89 90/220/89 50/218/89

vt 0.181636 0.110703
vn 0.44913 -0.881468 -0.145931
vt -0.0954912 -0.190073
vt 0.0954917 -0.190073
f 53/221/90 69/222/90 52/223/90

vt -0.181635 0.110702
f 69/222/90 53/221/90 68/224/90

vt 0.181636 -0.20098
vn 0.689152 -0.689151 -0.223919
vt -0.25 0.104328
vt -0.181635 -0.200981
f 53/225/91 67/226/91 68/227/91

vt 0.250001 0.104328
f 67/226/91 53/225/91 54/228/91

vn 0.855862 -0.436084 -0.278086
f 54/156/92 66/155/92 67/158/92

f 66/155/92 54/156/92 55/157/92

vn 0.940447 -0.148952 -0.30557
f 55/187/93 65/188/93 66/189/93

f 65/188/93 55/187/93 56/190/93

usemtl ballStar1_
vt 1 1.17563e-08
vn 0.940447 0.148952 -0.30557
vt 0.0244717 1
vt -5.55112e-17 0
f 56/229/94 64/230/94 65/231/94

vt 0.975528 1
f 64/230/94 56/229/94 57/232/94

usemtl ball
vn 0.855862 0.436084 -0.278086
f 57/197/95 63/198/95 64/196/95

f 63/198/95 57/197/95 58/195/95

vt 0.250001 -0.104328
vn 0.689152 0.689151 -0.223919
vt -0.181635 0.200981
vt -0.25 -0.104328
f 58/233/96 62/234/96 63/235/96

vt 0.181636 0.20098
f 62/234/96 58/233/96 59/236/96

vt 0.181636 0.110703
vn -0.44913 -0.881468 0.145931
vt -0.0954915 -0.190073
vt 0.0954914 -0.190073
f 74/237/97 91/238/97 73/239/97

v -0.0117557 -0.0161803 -0
vt -0.181636 0.110703
f 91/238/97 74/237/97 92/240/97

vt 0.181636 -0.200981
vn -0.689152 -0.689151 0.223919
vt -0.25 0.104328
vt -0.181636 -0.200981
f 74/241/98 77/242/98 92/243/98

vt 0.25 0.104328
f 77/242/98 74/241/98 75/244/98

vt -0.25 0.104328
vn -0.689152 -0.689151 -0.223919
vt 0.181636 -0.200981
vt 0.25 0.104328
f 79/245/99 92/246/99 77/247/99

vt -0.181636 -0.200981
f 92/246/99 79/245/99 88/248/99

vt -0.181636 0.110703
vn -0.44913 -0.881468 -0.145931
vt 0.0954915 -0.190073
vt 0.181636 0.110703
f 88/249/100 91/250/100 92/251/100

vt -0.0954914 -0.190073
f 91/250/100 88/249/100 89/252/100

