# Alias OBJ Model File
# Exported from SketchUp, (c) 2000-2006 Google, Inc.
# File units = meters

mtllib paddle.mtl

g Mesh1 Model

usemtl Material3
v -0.0724444 -0.0204 -0.0239149
vt 2.85214 0.941531
vn 5.6309e-33 -1 -9.08652e-33
v -0.0724444 -0.0204 0.0239149
vt 2.85214 -0.941531
v -0.075 -0.0204 -0
vt 2.95276 -7.29784e-33
f 1/1/1 2/2/1 3/3/1

v -0.0649519 -0.0204 0.0462
vt 2.55716 -1.8189
f 2/2/1 1/1/1 4/4/1

v -0.0649519 -0.0204 -0.0462
vt 2.55716 1.8189
f 4/4/1 1/1/1 5/5/1

usemtl black
vt 0.016488 -0.80315
vn -0.976891 0 -0.213736
v -0.0649519 0 -0.0462
vt -0.90914 0
vn -0.904458 0 -0.426562
vt -0.90914 -0.80315
f 1/6/2 6/7/3 5/8/3

v -0.0724444 0 -0.0239149
vt 0.016488 0
f 6/7/3 1/6/2 7/9/2

vt 0.313748 -0.80315
vn -1 0 -3.21006e-16
vt -0.633144 0
vt -0.633144 -0.80315
f 3/10/4 7/11/2 1/12/2

v -0.075 0 -0
vt 0.313748 0
f 7/11/2 3/10/4 8/13/4

vt 0.633144 -0.80315
vn -0.976891 0 0.213736
vt -0.313748 0
vt -0.313748 -0.80315
f 2/14/5 8/15/4 3/16/4

v -0.0724444 0 0.0239149
vt 0.633144 0
f 8/15/4 2/14/5 9/17/5

vt 0.90914 -0.80315
vn -0.904458 0 0.426562
vt -0.016488 0
vt -0.016488 -0.80315
f 4/18/6 9/19/5 2/20/5

v -0.0649519 0 0.0462
vt 0.90914 0
f 9/19/5 4/18/6 10/21/6

v -0.053033 -0.0204 0.0653367
vt 1.07962 -0.80315
vn -0.774254 0 0.632875
vt 0.192021 0
vt 0.192021 -0.80315
f 11/22/7 10/23/6 4/24/6

v -0.053033 0 0.0653367
vt 1.07962 0
f 10/23/6 11/22/7 12/25/7

vt 0.249843 -0.80315
v -0.0375 0 0.0800207
vt 1.09138 0
vn -0.576621 0 0.817012
vt 0.249843 0
f 11/26/7 13/27/8 12/28/7

v -0.0375 -0.0204 0.0800207
vt 1.09138 -0.80315
f 13/27/8 11/26/7 14/29/8

usemtl Material3
vt 2.08791 -2.57231
v -0.053033 -0.0204 -0.0653367
vt 2.08791 2.57231
vt 1.47638 -3.15042
f 11/30/1 15/31/1 14/32/1

f 4/4/1 15/31/1 11/30/1

f 4/4/1 5/5/1 15/31/1

usemtl black
vt -0.192021 -0.80315
v -0.053033 0 -0.0653367
vt -1.07962 0
vn -0.774254 0 -0.632875
vt -1.07962 -0.80315
f 5/33/3 16/34/9 15/35/9

vt -0.192021 0
f 16/34/9 5/33/3 6/36/3

usemtl Material1
vt -2.55716 1.8189
vn 0 1 -0
vt -2.08791 -2.57231
vt -2.08791 2.57231
f 6/37/10 12/38/10 16/39/10

vt -2.55716 -1.8189
f 6/37/10 10/40/10 12/38/10

vt -2.85214 0.941531
f 7/41/10 10/40/10 6/37/10

vt -2.85214 -0.941531
f 7/41/10 9/42/10 10/40/10

vt -2.95276 0
f 9/42/10 7/41/10 8/43/10

vt -1.47638 -3.15042
f 16/39/10 12/38/10 13/44/10

v -0.0375 0 -0.0800207
vt -1.47638 3.15042
f 16/39/10 13/44/10 17/45/10

v -0.025 0 0.0863996
vt -0.984252 -3.40156
f 17/45/10 13/44/10 18/46/10

usemtl black
vt 0.116968 -0.80315
vt 0.66947 0
vn -0.454546 0 0.890723
vt 0.116968 0
f 14/47/8 18/48/11 13/49/8

v -0.025 -0.0204 0.0863996
vt 0.66947 -0.80315
f 18/48/11 14/47/8 19/50/11

usemtl Material3
v -0.0375 -0.0204 -0.0800207
vt 1.47638 3.15042
vt 0.984252 -3.40156
f 14/32/1 20/51/1 19/52/1

f 14/32/1 15/31/1 20/51/1

usemtl black
vt -0.249843 0
vt -1.09138 -0.80315
vn -0.576621 0 -0.817012
vt -0.249843 -0.80315
f 16/53/9 20/54/12 15/55/9

vt -1.09138 0
f 20/54/12 16/53/9 17/56/12

vt -0.116968 0
v -0.0194114 -0.0204 -0.0892515
vt -0.916485 -0.80315
vn -0.31108 0 -0.950384
vt -0.116968 -0.80315
f 17/57/12 21/58/13 20/59/12

v -0.0194114 0 -0.0892515
vt -0.916485 0
f 21/58/13 17/57/12 22/60/13

usemtl Material1
vt -0.764229 3.51384
f 17/45/10 18/46/10 22/61/10

v -0.0194114 0 0.0892515
vt -0.764229 -3.51384
f 22/61/10 18/46/10 23/62/10

usemtl black
vt 0.66947 -0.80315
vt 0.916485 0
vn -0.31108 0 0.950384
vt 0.66947 0
f 19/63/11 23/64/14 18/65/11

v -0.0194114 -0.0204 0.0892515
vt 0.916485 -0.80315
f 23/64/14 19/63/11 24/66/14

usemtl Material3
vt 0.764229 3.51384
vt 0.764229 -3.51384
f 19/52/1 21/67/1 24/68/1

f 19/52/1 20/51/1 21/67/1

v -0.015 -0.0204 0.0899671
vt 0.590551 -3.54201
f 24/68/1 21/67/1 25/69/1

v 0 -0.0204 -0.0924
vt 4.52246e-33 3.6378
f 25/69/1 21/67/1 26/70/1

usemtl black
vt 0.191793 0
vt -0.582424 -0.80315
vn -5.06129e-16 0 -1
vt 0.191793 -0.80315
f 22/71/13 26/72/15 21/73/13

v 0 0 -0.0924
vt -0.582424 0
f 26/72/15 22/71/13 27/74/15

usemtl Material1
v -0.015 0 0.0899671
vt -0.590551 -3.54201
vt 0 3.6378
f 22/61/10 28/75/10 27/76/10

f 22/61/10 23/62/10 28/75/10

usemtl black
vt -0.191793 -0.80315
vt -0.0158446 0
vn -0.160104 0 0.9871
vt -0.191793 0
f 24/77/14 28/78/16 23/79/14

vt -0.0158446 -0.80315
f 28/78/16 24/77/14 25/80/16

usemtl Material2
v -0.015 -0.0204 0.1576
vt 6.20472 -0.80315
vn -1 0 -0
vt 3.54201 0
vt 3.54201 -0.80315
f 29/81/17 28/82/17 25/83/17

v -0.015 0 0.1576
vt 6.20472 0
f 28/82/17 29/81/17 30/84/17

vt -0.590551 -0.80315
vn 0 0 1
v 0.015 0 0.1576
vt 0.590551 0
vt -0.590551 0
f 29/85/18 31/86/18 30/87/18

v 0.015 -0.0204 0.1576
vt 0.590551 -0.80315
f 31/86/18 29/85/18 32/88/18

vt 0.590551 -6.20472
vn 0 -1 -0
v 0.015 -0.0204 0.0899671
vt -0.590551 -3.54201
vt -0.590551 -6.20472
f 29/89/19 33/90/19 32/91/19

f 33/90/19 29/89/19 25/69/19

usemtl Material3
f 25/69/1 26/70/1 33/90/1

v 0.0194114 -0.0204 -0.0892515
vt -0.764229 3.51384
f 33/90/1 26/70/1 34/92/1

usemtl black
vt 0.582424 0
vt -0.191793 -0.80315
vn 0.31108 0 -0.950384
vt 0.582424 -0.80315
f 27/93/15 34/94/20 26/95/15

v 0.0194114 0 -0.0892515
vt -0.191793 0
f 34/94/20 27/93/15 35/96/20

usemtl Material1
v 0.015 0 0.0899671
vt 0.590551 -3.54201
vt 0.764229 3.51384
f 27/76/10 36/97/10 35/98/10

f 27/76/10 28/75/10 36/97/10

usemtl Material2
vt 0.590551 -6.20472
f 28/75/10 31/99/10 36/97/10

vt -0.590551 -6.20472
f 31/99/10 28/75/10 30/100/10

vt -6.20472 0
vn 1 0 -0
vt -3.54201 -0.80315
vt -3.54201 0
f 31/101/21 33/102/21 36/103/21

vt -6.20472 -0.80315
f 33/102/21 31/101/21 32/104/21

usemtl black
vt 0.0158446 -0.80315
vn 0.160104 0 0.9871
v 0.0194114 0 0.0892515
vt 0.191793 0
vn 0.31108 0 0.950384
vt 0.0158446 0
f 33/105/22 37/106/23 36/107/22

v 0.0194114 -0.0204 0.0892515
vt 0.191793 -0.80315
f 37/106/23 33/105/22 38/108/23

usemtl Material3
vt -0.764229 -3.51384
f 33/90/1 34/92/1 38/109/1

v 0.025 -0.0204 0.0863996
vt -0.984252 -3.40156
f 38/109/1 34/92/1 39/110/1

v 0.0375 -0.0204 -0.0800207
f 39/110/1 34/92/1 40/45/1

usemtl black
vt 0.916485 0
vt 0.116968 -0.80315
vn 0.576621 0 -0.817012
vt 0.916485 -0.80315
f 35/111/20 40/112/24 34/113/20

v 0.0375 0 -0.0800207
vt 0.116968 0
f 40/112/24 35/111/20 41/114/24

usemtl Material1
v 0.025 0 0.0863996
vt 0.984252 -3.40156
f 35/98/10 42/115/10 41/51/10

vt 0.764229 -3.51384
f 35/98/10 37/116/10 42/115/10

f 35/98/10 36/97/10 37/116/10

usemtl black
vt -0.916485 -0.80315
vt -0.66947 0
vn 0.454546 0 0.890723
vt -0.916485 0
f 38/117/23 42/118/25 37/119/23

vt -0.66947 -0.80315
f 42/118/25 38/117/23 39/120/25

vt -0.66947 -0.80315
v 0.0375 0 0.0800207
vt -0.116968 0
vn 0.576621 0 0.817012
vt -0.66947 0
f 39/121/25 43/122/26 42/123/25

v 0.0375 -0.0204 0.0800207
vt -0.116968 -0.80315
f 43/122/26 39/121/25 44/124/26

usemtl Material3
vt -1.47638 -3.15042
f 39/110/1 40/45/1 44/125/1

v 0.053033 -0.0204 0.0653367
vt -2.08791 -2.57231
f 44/125/1 40/45/1 45/126/1

v 0.053033 -0.0204 -0.0653367
vt -2.08791 2.57231
f 45/126/1 40/45/1 46/127/1

usemtl black
vt 1.09138 0
vt 0.249843 -0.80315
vn 0.774254 0 -0.632875
vt 1.09138 -0.80315
f 41/128/24 46/129/27 40/130/24

v 0.053033 0 -0.0653367
vt 0.249843 0
f 46/129/27 41/128/24 47/131/27

usemtl Material1
v 0.053033 0 0.0653367
vt 2.08791 -2.57231
vt 2.08791 2.57231
f 41/51/10 48/132/10 47/133/10

vt 1.47638 -3.15042
f 41/51/10 43/134/10 48/132/10

f 41/51/10 42/115/10 43/134/10

usemtl black
vt -1.09138 -0.80315
vt -0.249843 0
vn 0.774254 0 0.632875
vt -1.09138 0
f 44/135/26 48/136/28 43/137/26

vt -0.249843 -0.80315
f 48/136/28 44/135/26 45/138/28

v 0.0649519 -0.0204 0.0462
vt -0.192021 -0.80315
vn 0.904458 0 0.426562
vt -1.07962 0
vt -1.07962 -0.80315
f 49/139/29 48/140/28 45/141/28

v 0.0649519 0 0.0462
vt -0.192021 0
f 48/140/28 49/139/29 50/142/29

v 0.0724444 -0.0204 0.0239149
vt 0.016488 -0.80315
vn 0.976891 0 0.213736
vt -0.90914 0
vt -0.90914 -0.80315
f 51/143/30 50/144/29 49/145/29

v 0.0724444 0 0.0239149
vt 0.016488 0
f 50/144/29 51/143/30 52/146/30

v 0.075 -0.0204 -0
vt 0.313748 -0.80315
vn 1 0 -2.02374e-16
vt -0.633144 0
vt -0.633144 -0.80315
f 53/147/31 52/148/30 51/149/30

v 0.075 0 -0
vt 0.313748 0
f 52/148/30 53/147/31 54/150/31

v 0.0724444 -0.0204 -0.0239149
vt 0.633144 -0.80315
vn 0.976891 0 -0.213736
vt -0.313748 0
vt -0.313748 -0.80315
f 55/151/32 54/152/31 53/153/31

v 0.0724444 0 -0.0239149
vt 0.633144 0
f 54/152/31 55/151/32 56/154/32

v 0.0649519 -0.0204 -0.0462
vt 0.90914 -0.80315
vn 0.904458 0 -0.426562
vt -0.016488 0
vt -0.016488 -0.80315
f 57/155/33 56/156/32 55/157/32

v 0.0649519 0 -0.0462
vt 0.90914 0
f 56/156/32 57/155/33 58/158/33

vt 1.07962 -0.80315
vt 0.192021 0
vt 0.192021 -0.80315
f 46/159/27 58/160/33 57/161/33

vt 1.07962 0
f 58/160/33 46/159/27 47/162/27

usemtl Material1
vt 2.55716 -1.8189
vt 2.55716 1.8189
f 47/133/10 50/163/10 58/164/10

f 47/133/10 48/132/10 50/163/10

vt 2.85214 -0.941531
f 58/164/10 50/163/10 52/165/10

vt 2.85214 0.941531
f 58/164/10 52/165/10 56/166/10

vt 2.95276 0
f 56/166/10 52/165/10 54/167/10

usemtl Material3
vt -2.55716 -1.8189
vt -2.55716 1.8189
f 49/168/1 46/127/1 57/169/1

f 45/126/1 46/127/1 49/168/1

vt -2.85214 0.941531
f 49/168/1 57/169/1 55/170/1

vt -2.85214 -0.941531
f 49/168/1 55/170/1 51/171/1

vt -2.95276 -7.29784e-33
f 51/171/1 55/170/1 53/172/1

usemtl FrontColor
f 36/86/18 25/85/18 33/88/18

f 25/85/18 36/86/18 28/87/18

