# Alias OBJ Model File
# Exported from SketchUp, (c) 2000-2006 Google, Inc.
# File units = meters

mtllib pose.mtl

g Mesh1 Model

usemtl Material1
v -0.2 0 -0.075
vt 7.87402 2.95276
vn 0 -1 -0
v -0.35 0 0.075
vt 13.7795 -2.95276
v -0.35 0 -0.075
vt 13.7795 2.95276
f 1/1/1 2/2/1 3/3/1

v -0.2 0 0.075
vt 7.87402 -2.95276
f 2/2/1 1/1/1 4/4/1

vt 2.95276 -0.783494
vn 0.995037 -0.0995037 6.08185e-17
v -0.115 0.85 0.075
vt -2.95276 32.848
vt -2.95276 -0.783494
f 1/5/2 5/6/2 4/7/2

v -0.115 0.85 -0.075
vt 2.95276 32.848
f 5/6/2 1/5/2 6/8/2

vt 7.87402 0
vn 0 0 -1
v -0.25 1 -0.075
vt 9.84252 39.3701
vt 4.52756 33.4646
f 1/9/3 7/10/3 6/11/3

vt 13.7795 0
f 7/10/3 1/9/3 3/12/3

vt 2.95276 -1.37111
vn -0.995037 0.0995037 -0
vt -2.95276 38.1953
vt -2.95276 -1.37111
f 2/13/4 7/14/4 3/15/4

v -0.25 1 0.075
vt 2.95276 38.1953
f 7/14/4 2/13/4 8/16/4

vt -13.7795 1.48884e-17
vn 8.12046e-17 -5.04219e-18 1
vt -4.52756 33.4646
vt -9.84252 39.3701
f 2/17/5 5/18/5 8/19/5

vt -7.87402 1.48884e-17
f 5/18/5 2/17/5 4/20/5

v 0.25 1 0.075
f 8/19/5 5/18/5 9/10/5

v 0.115 0.85 0.075
vt 4.52756 33.4646
f 10/21/5 9/10/5 5/18/5

v 0.2 0 0.075
vt 7.87402 1.48884e-17
f 11/22/5 9/10/5 10/21/5

v 0.35 0 0.075
vt 13.7795 1.48884e-17
f 9/10/5 11/22/5 12/23/5

vt -7.87402 -2.95276
v 0.35 0 -0.075
vt -13.7795 2.95276
vt -13.7795 -2.95276
f 11/24/1 13/25/1 12/26/1

v 0.2 0 -0.075
vt -7.87402 2.95276
f 13/25/1 11/24/1 14/27/1

vt 2.95276 -0.783494
vn -0.995037 -0.0995037 7.60231e-17
v 0.115 0.85 -0.075
vt -2.95276 32.848
vt -2.95276 -0.783494
f 11/28/6 15/29/6 14/30/6

f 15/29/6 11/28/6 10/8/6

vt 4.52756 -2.95276
vn 5.2132e-32 -1 1.20319e-15
vt -4.52756 2.95276
vt -4.52756 -2.95276
f 5/31/7 15/32/7 10/33/7

vt 4.52756 2.95276
f 15/32/7 5/31/7 6/34/7

vt -4.52756 33.4646
f 6/11/3 7/10/3 15/35/3

v 0.25 1 -0.075
f 16/19/3 15/35/3 7/10/3

vt -13.7795 0
f 13/36/3 15/35/3 16/19/3

vt -7.87402 0
f 15/35/3 13/36/3 14/37/3

vt -2.95276 38.1953
vn 0.995037 0.0995037 -0
f 9/38/8 13/13/8 16/16/8

vt -2.95276 -1.37111
f 13/13/8 9/38/8 12/39/8

usemtl Material2
vt 2.95276 39.3701
vn 1 0 -0
v 0.25 1.5 0.075
vt -2.95276 59.0551
vt -2.95276 39.3701
f 16/40/9 17/41/9 9/42/9

v 0.25 1.5 -0.075
vt 2.95276 59.0551
f 17/41/9 16/40/9 18/43/9

v -0.25 1.5 -0.075
vt 9.84252 59.0551
vt -9.84252 59.0551
f 16/19/3 19/44/3 18/45/3

f 19/44/3 16/19/3 7/10/3

vn -1 0 -0
vt -2.95276 59.0551
vt -2.95276 39.3701
f 8/40/10 19/46/10 7/47/10

v -0.25 1.5 0.075
f 19/46/10 8/40/10 20/43/10

vn 5.25945e-17 5.80335e-19 1
f 8/19/11 17/44/11 20/45/11

f 17/44/11 8/19/11 9/10/11

v 0.4 1.65 0.075
vt 15.748 64.9606
f 17/44/11 21/48/11 20/45/11

v 0.55 1.5 0.075
vt 21.6535 59.0551
f 22/49/11 21/48/11 17/44/11

v 0.55 1.9 0.075
vt 21.6535 74.8031
f 21/48/11 22/49/11 23/50/11

v 0.55 1.5 -0.075
vt -2.95276 74.8031
f 24/43/9 23/51/9 22/41/9

v 0.55 1.9 -0.075
vt 2.95276 74.8031
f 23/51/9 24/43/9 25/52/9

v 0.4 1.65 -0.075
vt -15.748 64.9606
vt -21.6535 74.8031
vt -21.6535 59.0551
f 26/53/3 25/54/3 24/55/3

v 0.4 1.9 -0.075
vt -15.748 74.8031
f 25/54/3 26/53/3 27/56/3

vt 2.95276 64.9606
vn -1 0 -3.00796e-16
vt -2.95276 74.8031
vt -2.95276 64.9606
f 21/57/12 27/58/12 26/59/12

v 0.4 1.9 0.075
vt 2.95276 74.8031
f 27/58/12 21/57/12 28/60/12

vt 15.748 74.8031
f 21/48/11 23/50/11 28/61/11

vt 21.6535 -2.95276
vn 0 1 -0
vt 15.748 2.95276
vt 15.748 -2.95276
f 23/62/13 27/63/13 28/64/13

vt 21.6535 2.95276
f 27/63/13 23/62/13 25/65/13

v -0.4 1.65 -0.075
vt -15.748 2.95276
vn 5.07128e-16 1 1.19324e-16
vt 15.748 -2.95276
vt 15.748 2.95276
f 29/66/14 21/67/14 26/68/14

v -0.4 1.65 0.075
vt -15.748 -2.95276
f 21/67/14 29/66/14 30/69/14

vt 2.95276 64.9606
v -0.4 1.9 0.075
vt -2.95276 74.8031
vt -2.95276 64.9606
f 29/70/9 31/71/9 30/72/9

v -0.4 1.9 -0.075
vt 2.95276 74.8031
f 31/71/9 29/70/9 32/73/9

vt 15.748 64.9606
v -0.55 1.9 -0.075
vt 21.6535 74.8031
vt 15.748 74.8031
f 29/74/3 33/75/3 32/76/3

v -0.55 1.5 -0.075
vt 21.6535 59.0551
f 29/74/3 34/77/3 33/75/3

f 34/77/3 29/74/3 19/44/3

f 19/44/3 29/74/3 18/45/3

f 18/45/3 29/74/3 24/55/3

f 24/55/3 29/74/3 26/53/3

vt -21.6535 2.95276
vt -9.84252 -2.95276
vt -9.84252 2.95276
f 24/78/1 17/79/1 18/80/1

vt -21.6535 -2.95276
f 17/79/1 24/78/1 22/81/1

vt 9.84252 2.95276
v -0.55 1.5 0.075
vt 21.6535 -2.95276
vt 21.6535 2.95276
f 19/82/1 35/83/1 34/84/1

vt 9.84252 -2.95276
f 35/83/1 19/82/1 20/85/1

vt -21.6535 59.0551
f 20/45/11 21/48/11 35/86/11

vt -15.748 64.9606
f 30/87/11 35/86/11 21/48/11

v -0.55 1.9 0.075
vt -21.6535 74.8031
f 35/86/11 30/87/11 36/88/11

vt -15.748 74.8031
f 36/88/11 30/87/11 31/89/11

vt -15.748 -2.95276
vt -21.6535 2.95276
vt -21.6535 -2.95276
f 31/90/13 33/91/13 36/92/13

vt -15.748 2.95276
f 33/91/13 31/90/13 32/93/13

f 33/71/10 35/43/10 36/73/10

f 35/43/10 33/71/10 34/46/10

g Mesh2 Model

usemtl Material3
v 0.53 2.03 0.055
vt 20.8661 -2.16535
v 0.42 2.03 -0.055
vt 16.5354 2.16535
v 0.42 2.03 0.055
vt 16.5354 -2.16535
f 37/94/13 38/95/13 39/96/13

v 0.53 2.03 -0.055
vt 20.8661 2.16535
f 38/95/13 37/94/13 40/97/13

vt -2.16535 79.9213
v 0.53 1.92 -0.055
vt 2.16535 75.5906
vt 2.16535 79.9213
f 37/98/9 41/99/9 40/100/9

v 0.53 1.92 0.055
vt -2.16535 75.5906
f 41/99/9 37/98/9 42/101/9

vt 20.8661 79.9213
vn 0 0 1
v 0.42 1.92 0.055
vt 16.5354 75.5906
vt 20.8661 75.5906
f 37/102/15 43/103/15 42/104/15

vt 16.5354 79.9213
f 43/103/15 37/102/15 39/105/15

vt -2.16535 79.9213
vt 2.16535 75.5906
vt 2.16535 79.9213
f 38/106/10 43/107/10 39/108/10

v 0.42 1.92 -0.055
vt -2.16535 75.5906
f 43/107/10 38/106/10 44/109/10

vt -16.5354 79.9213
vt -20.8661 75.5906
vt -16.5354 75.5906
f 38/110/3 41/111/3 44/112/3

vt -20.8661 79.9213
f 41/111/3 38/110/3 40/113/3

vt -20.8661 2.16535
vt -16.5354 -2.16535
vt -16.5354 2.16535
f 41/114/1 43/115/1 44/116/1

vt -20.8661 -2.16535
f 43/115/1 41/114/1 42/117/1

g Mesh3 Model

v -0.42 2.03 0.055
vt -16.5354 -2.16535
v -0.53 2.03 -0.055
vt -20.8661 2.16535
v -0.53 2.03 0.055
vt -20.8661 -2.16535
f 45/118/13 46/119/13 47/120/13

v -0.42 2.03 -0.055
vt -16.5354 2.16535
f 46/119/13 45/118/13 48/121/13

vt -2.16535 79.9213
vn 1 -4.10177e-16 -4.10177e-16
v -0.42 1.92 -0.055
vt 2.16535 75.5906
vt 2.16535 79.9213
f 45/122/16 49/123/16 48/124/16

v -0.42 1.92 0.055
vt -2.16535 75.5906
f 49/123/16 45/122/16 50/125/16

vt -16.5354 79.9213
v -0.53 1.92 0.055
vt -20.8661 75.5906
f 45/126/15 51/127/15 50/112/15

vt -20.8661 79.9213
f 51/127/15 45/126/15 47/128/15

vt -2.16535 79.9213
vn -1 -8.20354e-16 3.88493e-32
vt 2.16535 75.5906
vt 2.16535 79.9213
f 46/129/17 51/130/17 47/131/17

v -0.53 1.92 -0.055
vt -2.16535 75.5906
f 51/130/17 46/129/17 52/132/17

vt 20.8661 79.9213
vn 0 1.02544e-16 -1
vt 16.5354 75.5906
vt 20.8661 75.5906
f 46/133/18 49/134/18 52/135/18

vt 16.5354 79.9213
f 49/134/18 46/133/18 48/136/18

vt 16.5354 2.16535
vt 20.8661 -2.16535
vt 20.8661 2.16535
f 49/137/1 51/138/1 52/139/1

vt 16.5354 -2.16535
f 51/138/1 49/137/1 50/140/1

g Mesh4 Model

v 0.15 1.67 -0.15
vt -5.90551 5.90551
v -0.15 1.67 0.15
vt 5.90551 -5.90551
v -0.15 1.67 -0.15
vt 5.90551 5.90551
f 53/141/1 54/142/1 55/143/1

v 0.15 1.67 0.15
vt -5.90551 -5.90551
f 54/142/1 53/141/1 56/144/1

vt 5.90551 65.748
v 0.15 1.97 0.15
vt -5.90551 77.5591
vt -5.90551 65.748
f 53/145/9 57/146/9 56/147/9

v 0.15 1.97 -0.15
vt 5.90551 77.5591
f 57/146/9 53/145/9 58/148/9

vt -5.90551 65.748
v -0.15 1.97 -0.15
vt 5.90551 77.5591
vt -5.90551 77.5591
f 53/149/3 59/150/3 58/151/3

vt 5.90551 65.748
f 59/150/3 53/149/3 55/152/3

vt 5.90551 65.748
vt -5.90551 77.5591
vt -5.90551 65.748
f 54/153/10 59/154/10 55/155/10

v -0.15 1.97 0.15
vt 5.90551 77.5591
f 59/154/10 54/153/10 60/156/10

f 54/149/15 57/150/15 60/151/15

f 57/150/15 54/149/15 56/152/15

f 57/142/13 59/141/13 60/144/13

f 59/141/13 57/142/13 58/143/13

