# Alias OBJ Model File
# Exported from SketchUp, (c) 2000-2006 Google, Inc.
# File units = meters

mtllib replay.mtl

g Mesh1 Model

usemtl replay
v 1.43054 0.430544 0.05
vt 1.0008 1.00302
vn 0 0 1
v 0.0694558 0.0694558 0.05
vt 0 0
v 1.43054 0.0694558 0.05
vt 1.0008 0
f 1/1/1 2/2/1 3/3/1

v 0.0694558 0.430544 0.05
vt 0 1.00302
f 2/2/1 1/1/1 4/4/1

usemtl Material1
v 1.5 0.5 -0
vt 59.0551 15.976
vn -9.06846e-19 0.584242 0.81158
vt 2.73448 12.6066
vt 56.3206 12.6066
f 5/5/2 4/6/2 1/7/2

v 0 0.5 -0
vt 0 15.976
f 4/6/2 5/5/2 6/8/2

v 1.5 0 -0
vt -59.0551 0
vn 0 0 -1
vt 0 19.685
vt -59.0551 19.685
f 7/9/3 6/10/3 5/11/3

v 0 0 -0
f 6/10/3 7/9/3 8/2/3

vt 56.3206 3.36933
vn -9.06846e-19 -0.584242 0.81158
vt 59.0551 -3.85525e-17
f 3/12/4 8/2/4 7/13/4

vt 2.73448 3.36933
f 8/2/4 3/12/4 2/14/4

vt 3.36933 2.73448
vn -0.584242 0 0.81158
f 2/15/5 6/10/5 8/2/5

vt 3.36933 16.9506
f 6/10/5 2/15/5 4/16/5

vt 47.9279 19.685
vn 0.584242 0 0.81158
vt 44.5586 2.73448
vt 47.9279 0
f 5/17/6 3/18/6 7/19/6

vt 44.5586 16.9506
f 3/18/6 5/17/6 1/20/6

