# Alias OBJ Model File
# Exported from SketchUp, (c) 2000-2006 Google, Inc.
# File units = meters

mtllib shadow.mtl

g Mesh1 Model

usemtl Material1
v -0.0173205 0 0.01
vt -0.68191 -0.393701
vn 0 1 -0
v -0.0173205 0 -0.01
vt -0.68191 0.393701
v -0.02 0 -1.13311e-17
vt -0.787402 4.46105e-16
f 1/1/1 2/2/1 3/3/1

v -0.01 0 0.0173205
vt -0.393701 -0.68191
f 2/2/1 1/1/1 4/4/1

v -0.01 0 -0.0173205
vt -0.393701 0.68191
f 2/2/1 4/4/1 5/5/1

v -3.67394e-18 0 0.02
vt -1.44643e-16 -0.787402
f 5/5/1 4/4/1 6/6/1

v 1.22465e-18 0 -0.02
vt 4.82144e-17 0.787402
f 5/5/1 6/6/1 7/7/1

v 0.01 0 0.0173205
vt 0.393701 -0.68191
f 7/7/1 6/6/1 8/8/1

v 0.01 0 -0.0173205
vt 0.393701 0.68191
f 7/7/1 8/8/1 9/9/1

v 0.0173205 0 0.01
vt 0.68191 -0.393701
f 9/9/1 8/8/1 10/10/1

v 0.0173205 0 -0.01
vt 0.68191 0.393701
f 9/9/1 10/10/1 11/11/1

v 0.02 0 -0
vt 0.787402 0
f 11/11/1 10/10/1 12/12/1

