# Alias OBJ Model File
# Exported from SketchUp, (c) 2000-2006 Google, Inc.
# File units = meters

mtllib scoreBoard.mtl

g Mesh1 Group1 Model

usemtl Metal_Aluminum_Anodized
v 1.2225 2.15 -1.47
vt 1.07174 1.56751
vn 1 0 -0
v 1.2225 2.6 -1.37
vt 0.998833 1.8956
v 1.2225 2.15 -1.37
vt 0.998833 1.56751
f 1/1/1 2/2/1 3/3/1

v 1.2225 2.6 -1.47
vt 1.07174 1.8956
f 2/2/1 1/1/1 4/4/1

vt -0.891295 1.56751
vn 0 0 -1
v 0.3025 2.6 -1.47
vt -0.220545 1.8956
vt -0.891295 1.8956
f 1/5/2 5/6/2 4/7/2

v 0.3025 2.15 -1.47
vt -0.220545 1.56751
f 5/6/2 1/5/2 6/8/2

vt -0.891295 1.07174
vn 0 -1 -0
v 0.3025 2.15 -1.37
vt -0.220545 0.998833
vt -0.220545 1.07174
f 1/9/3 7/10/3 6/11/3

vt -0.891295 0.998833
f 7/10/3 1/9/3 3/12/3

vt 0.891295 1.56751
vn 0 0 1
v 1.20768 2.16482 -1.37
vt 0.88049 1.57832
vt 0.220545 1.56751
f 3/13/4 8/14/4 7/15/4

vt 0.891295 1.8956
f 8/14/4 3/13/4 2/16/4

v 1.20768 2.58518 -1.37
vt 0.88049 1.88479
f 8/14/4 2/16/4 9/17/4

v 1.00768 2.58518 -1.37
vt 0.734674 1.88479
f 9/17/4 2/16/4 10/18/4

v 0.807679 2.58518 -1.37
vt 0.588859 1.88479
f 10/18/4 2/16/4 11/19/4

v 0.7175 2.58518 -1.37
vt 0.523112 1.88479
f 11/19/4 2/16/4 12/20/4

v 0.517321 2.58518 -1.37
vt 0.377166 1.88479
f 12/20/4 2/16/4 13/21/4

v 0.317321 2.58518 -1.37
vt 0.231351 1.88479
f 13/21/4 2/16/4 14/22/4

v 0.3025 2.6 -1.37
vt 0.220545 1.8956
f 15/23/4 14/22/4 2/16/4

v 0.317321 2.16482 -1.37
vt 0.231351 1.57832
f 15/23/4 16/24/4 14/22/4

f 7/15/4 16/24/4 15/23/4

f 16/24/4 7/15/4 8/14/4

v 1.00768 2.16482 -1.37
vt 0.734674 1.57832
f 16/24/4 8/14/4 17/25/4

usemtl M_3
vt 6 6.00085
vt 5 5
vt 6 5
f 9/26/4 17/27/4 8/28/4

vt 5 6.00085
f 17/27/4 9/26/4 10/29/4

usemtl M_2
vt 5 6.00085
v 0.807679 2.16482 -1.37
vt 4 5
vt 5 5
f 10/30/4 18/31/4 17/32/4

vt 4 6.00085
f 18/31/4 10/30/4 11/33/4

usemtl separator
vt 9.00199 6.00085
v 0.7175 2.16482 -1.37
vt 8 5
vt 9.00199 5
f 11/34/4 19/35/4 18/36/4

vt 8 6.00085
f 19/35/4 11/34/4 12/37/4

usemtl M_1
vt 4.0009 6.00085
v 0.517321 2.16482 -1.37
vt 3 5
vt 4.0009 5
f 12/38/4 20/39/4 19/40/4

vt 3 6.00085
f 20/39/4 12/38/4 13/41/4

usemtl M_0
vt 2 6.00085
vt 1 5
vt 2 5
f 13/42/4 16/43/4 20/44/4

vt 1 6.00085
f 16/43/4 13/42/4 14/45/4

usemtl Metal_Aluminum_Anodized
vt 0.523112 1.57832
vt 0.377166 1.57832
f 16/24/4 19/46/4 20/47/4

vt 0.588859 1.57832
f 16/24/4 18/48/4 19/46/4

f 16/24/4 17/25/4 18/48/4

vt -1.07174 1.8956
vn -1 0 -0
vt -0.998833 1.56751
vt -0.998833 1.8956
f 5/49/5 7/50/5 15/51/5

vt -1.07174 1.56751
f 7/50/5 5/49/5 6/52/5

v 0.5525 2.6 -1.37
vt 0.402814 0.998833
vn 0 1 -0
vt 0.220545 1.07174
vt 0.220545 0.998833
f 21/53/6 5/54/6 15/55/6

v 0.5525 2.6 -1.47
vt 0.402814 1.07174
f 5/54/6 21/53/6 22/56/6

v 0.5525 2.7 -1.47
vt -1.07174 1.9685
f 21/51/5 23/57/5 22/49/5

v 0.5525 2.7 -1.37
vt -0.998833 1.9685
f 23/57/5 21/51/5 24/58/5

vt 0.402814 1.8956
v 0.6525 2.7 -1.37
vt 0.475722 1.9685
vt 0.402814 1.9685
f 21/59/4 25/60/4 24/61/4

v 0.6525 2.6 -1.37
vt 0.475722 1.8956
f 25/60/4 21/59/4 26/62/4

f 15/23/4 26/62/4 21/59/4

v 0.8725 2.6 -1.37
vt 0.636118 1.8956
f 15/23/4 27/63/4 26/62/4

v 0.9725 2.6 -1.37
vt 0.709026 1.8956
f 15/23/4 28/64/4 27/63/4

f 15/23/4 2/16/4 28/64/4

vt 0.891295 0.998833
v 0.9725 2.6 -1.47
vt 0.709026 1.07174
vt 0.709026 0.998833
f 2/65/6 29/66/6 28/67/6

vt 0.891295 1.07174
f 29/66/6 2/65/6 4/68/6

v 0.8725 2.6 -1.47
vt -0.636118 1.8956
vt -0.709026 1.8956
f 4/7/2 30/69/2 29/70/2

v 0.6525 2.6 -1.47
vt -0.475722 1.8956
f 4/7/2 31/71/2 30/69/2

vt -0.402814 1.8956
f 4/7/2 22/72/2 31/71/2

f 4/7/2 5/6/2 22/72/2

vt -0.402814 1.9685
f 23/73/2 31/71/2 22/72/2

v 0.6525 2.7 -1.47
vt -0.475722 1.9685
f 31/71/2 23/73/2 32/74/2

v -3 2.7 -1.47
vt 2.18723 1.9685
f 32/74/2 23/73/2 33/75/2

vt -0.402814 1.07174
vn -2.03212e-16 -1 -0
v -3 2.7 -1.37
vt 2.18723 0.998833
vt 2.18723 1.07174
f 23/76/7 34/77/7 33/78/7

vt -0.402814 0.998833
f 34/77/7 23/76/7 24/79/7

v 4.525 2.7 -1.37
vt 3.29907 1.9685
vt -2.18723 1.9685
f 24/61/4 35/80/4 34/81/4

f 25/60/4 35/80/4 24/61/4

v 0.8725 2.7 -1.37
vt 0.636118 1.9685
f 36/82/4 35/80/4 25/60/4

v 0.9725 2.7 -1.37
vt 0.709026 1.9685
f 36/82/4 37/83/4 35/80/4

f 27/63/4 37/83/4 36/82/4

f 37/83/4 27/63/4 28/64/4

vt 0.998833 1.9685
f 29/4/1 37/84/1 28/2/1

v 0.9725 2.7 -1.47
vt 1.07174 1.9685
f 37/84/1 29/4/1 38/85/1

v 0.8725 2.7 -1.47
vt -0.636118 1.9685
vt -0.709026 1.9685
f 29/70/2 39/86/2 38/87/2

f 39/86/2 29/70/2 30/69/2

f 27/51/5 39/57/5 30/49/5

f 39/57/5 27/51/5 36/58/5

vt -0.475722 0.998833
vt -0.636118 1.07174
vt -0.636118 0.998833
f 25/88/3 39/89/3 36/90/3

vt -0.475722 1.07174
f 39/89/3 25/88/3 32/91/3

f 25/84/1 31/4/1 32/85/1

f 31/4/1 25/84/1 26/2/1

vt 0.636118 0.998833
vt 0.475722 1.07174
vt 0.475722 0.998833
f 27/92/6 31/93/6 26/94/6

vt 0.636118 1.07174
f 31/93/6 27/92/6 30/95/6

f 32/74/2 33/75/2 39/86/2

f 39/86/2 33/75/2 38/87/2

v 4.525 2.7 -1.47
vt -3.29907 1.9685
f 38/87/2 33/75/2 40/96/2

v -3 2.8 -1.47
vt 2.18723 2.04141
f 40/96/2 33/75/2 41/97/2

v 4.525 2.8 -1.47
vt -3.29907 2.04141
f 40/96/2 41/97/2 42/98/2

vt -2.18723 1.07174
v 4.525 2.8 -1.37
vt 3.29907 0.998833
vt 3.29907 1.07174
f 41/99/6 43/100/6 42/101/6

v -3 2.8 -1.37
vt -2.18723 0.998833
f 43/100/6 41/99/6 44/102/6

vt 3.29907 2.04141
vt -2.18723 2.04141
f 34/81/4 43/103/4 44/104/4

f 34/81/4 35/80/4 43/103/4

vt -3.29907 1.07174
vn 2.03212e-16 -1 -0
vt -0.709026 0.998833
vt -0.709026 1.07174
f 40/105/8 37/106/8 38/107/8

vt -3.29907 0.998833
f 37/106/8 40/105/8 35/108/8

